<svg width="1177" height="1176" viewBox="0 0 1177 1176" fill="none" xmlns="http://www.w3.org/2000/svg">
<g id="MentalHelathConnectionsLogo">
<path id="Vector" d="M849.016 1028.37V848.483H1028.92C1110.19 848.483 1176.35 781.075 1176.35 698.228V478.07C1176.35 395.223 1110.19 327.799 1028.92 327.799H544.497V760.159H148.417C115.804 760.159 89.3063 732.37 89.3063 698.228V478.07C89.3063 443.927 115.804 416.138 148.417 416.138H416.627V147.914C416.627 115.316 444.43 88.8033 478.558 88.8033H698.731C732.888 88.8033 760.662 115.316 760.662 147.914V239.475H849.001V147.914C849.001 66.6108 781.563 0.449097 698.731 0.449097H478.558C395.726 0.449097 328.317 66.6108 328.317 147.914V327.799H148.417C67.1138 327.799 0.952026 395.223 0.952026 478.07V698.228C0.952026 781.075 67.1138 848.483 148.417 848.483H632.806V416.138H1028.92C1061.5 416.138 1088 443.927 1088 478.07V698.228C1088 732.37 1061.5 760.159 1028.92 760.159H760.677V1028.37C760.677 1060.98 732.903 1087.48 698.746 1087.48H478.558C444.43 1087.48 416.627 1060.98 416.627 1028.37V936.823H328.317V1028.37C328.317 1109.69 395.726 1175.83 478.558 1175.83H698.731C781.578 1175.83 849.016 1109.69 849.016 1028.37Z" fill="#009200"/>
</g>
</svg>
